<svg width="18" height="18" viewBox="0 0 18 18" fill="none" xmlns="http://www.w3.org/2000/svg">
<path d="M1.39107 8.22113C1.48421 7.99645 1.62071 7.79232 1.79279 7.62042L7.62042 1.79279C7.79232 1.62071 7.99645 1.48421 8.22113 1.39107C8.44582 1.29794 8.68665 1.25 8.92988 1.25C9.1731 1.25 9.41394 1.29794 9.63862 1.39107C9.86331 1.48421 10.0674 1.62071 10.2393 1.79279L16.067 7.62042C16.2391 7.79227 16.3757 7.99638 16.4689 8.22107C16.5621 8.44576 16.6101 8.68662 16.6101 8.92988C16.6101 9.17313 16.5621 9.41399 16.4689 9.63868C16.3757 9.86337 16.2391 10.0675 16.067 10.2393L10.2393 16.067C10.0675 16.2391 9.86337 16.3757 9.63868 16.4689C9.41399 16.5621 9.17313 16.6101 8.92988 16.6101C8.68662 16.6101 8.44576 16.5621 8.22107 16.4689C7.99638 16.3757 7.79227 16.2391 7.62042 16.067L1.79279 10.2393C1.62071 10.0674 1.48421 9.86331 1.39107 9.63862C1.29794 9.41394 1.25 9.1731 1.25 8.92988C1.25 8.68665 1.29794 8.44582 1.39107 8.22113Z" fill="#F27C28" stroke="#F27C28" stroke-width="0.896004" stroke-linecap="round" stroke-linejoin="round"/>
<path d="M7.50498 12.825C7.50498 12.925 7.48331 12.995 7.43998 13.035C7.39998 13.0716 7.32998 13.09 7.22998 13.09H6.16497C6.06497 13.09 5.9933 13.0716 5.94997 13.035C5.90997 12.995 5.88997 12.925 5.88997 12.825V6.71994C5.88997 6.62327 5.90664 6.54994 5.93997 6.49994C6.08997 6.27993 6.29997 6.04827 6.56997 5.80493C6.61997 5.76493 6.66331 5.74493 6.69997 5.74493C6.73997 5.74493 6.78164 5.76493 6.82497 5.80493C6.97164 5.9316 7.09498 6.05327 7.19498 6.16993C7.29498 6.28327 7.38164 6.39327 7.45498 6.49994C7.48831 6.55327 7.50498 6.6266 7.50498 6.71994V8.79495H7.61998C8.03665 8.79495 8.37498 8.73828 8.63498 8.62495C8.89498 8.50828 9.09498 8.35328 9.23499 8.15994C9.37499 7.96328 9.46999 7.74494 9.51999 7.50494C9.57332 7.26494 9.59999 7.01994 9.59999 6.76994V6.71994C9.59999 6.62327 9.61665 6.54994 9.64999 6.49994C9.79999 6.27993 10.01 6.04827 10.28 5.80493C10.33 5.76493 10.3733 5.74493 10.41 5.74493C10.45 5.74493 10.4917 5.76493 10.535 5.80493C10.6817 5.9316 10.805 6.05327 10.905 6.16993C11.005 6.28327 11.0917 6.39327 11.165 6.49994C11.1983 6.55327 11.215 6.6266 11.215 6.71994V6.76994C11.215 7.03994 11.1883 7.31994 11.135 7.60994C11.0817 7.89661 10.9867 8.16828 10.85 8.42494C10.7167 8.68161 10.5267 8.90161 10.28 9.08495C10.0367 9.26495 9.72165 9.38328 9.33499 9.43995V9.47495C9.68165 9.58495 9.98999 9.76828 10.26 10.025C10.5333 10.2783 10.7683 10.5683 10.965 10.895C11.165 11.2216 11.3283 11.55 11.455 11.88C11.5817 12.21 11.6717 12.505 11.725 12.765C11.7517 12.8883 11.7517 12.9733 11.725 13.02C11.6983 13.0666 11.635 13.09 11.535 13.09H10.31C10.14 13.09 10.04 13.0116 10.01 12.855C9.95999 12.6016 9.86165 12.3166 9.71499 12C9.57165 11.68 9.39165 11.3716 9.17498 11.075C8.95832 10.7783 8.71665 10.5333 8.44998 10.34C8.18665 10.1466 7.90998 10.05 7.61998 10.05H7.50498V12.825Z" fill="white"/>
</svg>
