<svg width="107" height="17" viewBox="0 0 107 17" fill="none" xmlns="http://www.w3.org/2000/svg">
<path d="M1.14107 7.97113C1.23421 7.74645 1.37071 7.54232 1.54279 7.37042L7.37042 1.54279C7.54232 1.37071 7.74645 1.23421 7.97113 1.14107C8.19582 1.04794 8.43665 1 8.67988 1C8.9231 1 9.16394 1.04794 9.38862 1.14107C9.61331 1.23421 9.81743 1.37071 9.98933 1.54279L15.817 7.37042C15.9891 7.54227 16.1257 7.74638 16.2189 7.97107C16.3121 8.19576 16.3601 8.43662 16.3601 8.67988C16.3601 8.92313 16.3121 9.16399 16.2189 9.38868C16.1257 9.61337 15.9891 9.81748 15.817 9.98933L9.98933 15.817C9.81748 15.9891 9.61337 16.1257 9.38868 16.2189C9.16399 16.3121 8.92313 16.3601 8.67988 16.3601C8.43662 16.3601 8.19576 16.3121 7.97107 16.2189C7.74638 16.1257 7.54227 15.9891 7.37042 15.817L1.54279 9.98933C1.37071 9.81743 1.23421 9.61331 1.14107 9.38862C1.04794 9.16394 1 8.9231 1 8.67988C1 8.43665 1.04794 8.19582 1.14107 7.97113Z" fill="#F27C28" stroke="#F27C28" stroke-width="0.896004" stroke-linecap="round" stroke-linejoin="round"/>
<path d="M7.25498 12.575C7.25498 12.675 7.23331 12.745 7.18998 12.785C7.14998 12.8216 7.07998 12.84 6.97998 12.84H5.91497C5.81497 12.84 5.7433 12.8216 5.69997 12.785C5.65997 12.745 5.63997 12.675 5.63997 12.575V6.46994C5.63997 6.37327 5.65664 6.29994 5.68997 6.24994C5.83997 6.02993 6.04997 5.79827 6.31997 5.55493C6.36997 5.51493 6.41331 5.49493 6.44997 5.49493C6.48997 5.49493 6.53164 5.51493 6.57497 5.55493C6.72164 5.6816 6.84498 5.80327 6.94498 5.91993C7.04498 6.03327 7.13164 6.14327 7.20498 6.24994C7.23831 6.30327 7.25498 6.3766 7.25498 6.46994V8.54495H7.36998C7.78665 8.54495 8.12498 8.48828 8.38498 8.37495C8.64498 8.25828 8.84498 8.10328 8.98499 7.90994C9.12499 7.71328 9.21999 7.49494 9.26999 7.25494C9.32332 7.01494 9.34999 6.76994 9.34999 6.51994V6.46994C9.34999 6.37327 9.36665 6.29994 9.39999 6.24994C9.54999 6.02993 9.75999 5.79827 10.03 5.55493C10.08 5.51493 10.1233 5.49493 10.16 5.49493C10.2 5.49493 10.2417 5.51493 10.285 5.55493C10.4317 5.6816 10.555 5.80327 10.655 5.91993C10.755 6.03327 10.8417 6.14327 10.915 6.24994C10.9483 6.30327 10.965 6.3766 10.965 6.46994V6.51994C10.965 6.78994 10.9383 7.06994 10.885 7.35994C10.8317 7.64661 10.7367 7.91828 10.6 8.17494C10.4667 8.43161 10.2767 8.65161 10.03 8.83495C9.78666 9.01495 9.47165 9.13328 9.08499 9.18995V9.22495C9.43165 9.33495 9.73999 9.51828 10.01 9.77495C10.2833 10.0283 10.5183 10.3183 10.715 10.645C10.915 10.9716 11.0783 11.3 11.205 11.63C11.3317 11.96 11.4217 12.255 11.475 12.515C11.5017 12.6383 11.5017 12.7233 11.475 12.77C11.4483 12.8166 11.385 12.84 11.285 12.84H10.06C9.88999 12.84 9.78999 12.7616 9.75999 12.605C9.70999 12.3516 9.61165 12.0666 9.46499 11.75C9.32165 11.43 9.14165 11.1216 8.92498 10.825C8.70832 10.5283 8.46665 10.2833 8.19998 10.09C7.93665 9.89662 7.65998 9.79995 7.36998 9.79995H7.25498V12.575Z" fill="white"/>
<path d="M22.5234 14.5859C22.5234 14.7422 22.4896 14.8516 22.4219 14.9141C22.3594 14.9714 22.25 15 22.0938 15H20.4844C20.3281 15 20.2161 14.9714 20.1484 14.9141C20.0859 14.8516 20.0547 14.7422 20.0547 14.5859V4.01562C20.0547 3.89062 20.0807 3.79427 20.1328 3.72656C20.3516 3.4401 20.6719 3.13021 21.0938 2.79688C21.1667 2.74479 21.2318 2.71875 21.2891 2.71875C21.3568 2.71875 21.4219 2.74479 21.4844 2.79688C21.7083 2.96875 21.8958 3.13021 22.0469 3.28125C22.2031 3.43229 22.3359 3.58073 22.4453 3.72656C22.4974 3.79427 22.5234 3.89062 22.5234 4.01562V10.1484H22.6172C23.4089 10.1484 23.9453 10.0078 24.2266 9.72656C24.513 9.4401 24.6562 9.04427 24.6562 8.53906V8.11719C24.6562 7.99219 24.6823 7.89583 24.7344 7.82812C24.9531 7.54167 25.2734 7.23177 25.6953 6.89844C25.7682 6.84635 25.8333 6.82031 25.8906 6.82031C25.9583 6.82031 26.0234 6.84635 26.0859 6.89844C26.3099 7.07031 26.4974 7.23177 26.6484 7.38281C26.8047 7.53385 26.9375 7.68229 27.0469 7.82812C27.099 7.89583 27.125 7.99219 27.125 8.11719V8.53906C27.125 8.83594 27.0651 9.16406 26.9453 9.52344C26.8307 9.88281 26.6198 10.2005 26.3125 10.4766C26.0052 10.7526 25.5677 10.9141 25 10.9609V11C25.4375 11.1927 25.8151 11.4479 26.1328 11.7656C26.4505 12.0833 26.7161 12.4245 26.9297 12.7891C27.1432 13.1484 27.3073 13.4948 27.4219 13.8281C27.5417 14.1562 27.6198 14.4349 27.6562 14.6641C27.6927 14.888 27.6172 15 27.4297 15H25.375C25.1979 15 25.0964 14.8932 25.0703 14.6797C25.0339 14.4349 24.9531 14.1484 24.8281 13.8203C24.7083 13.487 24.5443 13.1615 24.3359 12.8438C24.1328 12.526 23.8854 12.263 23.5938 12.0547C23.3073 11.8411 22.9818 11.7344 22.6172 11.7344H22.5234V14.5859ZM30.1406 15.1641C30.0312 15.2109 29.9531 15.2344 29.9062 15.2344C29.8594 15.2344 29.8099 15.2161 29.7578 15.1797C29.638 15.0964 29.5 14.8932 29.3438 14.5703C29.1927 14.2422 29.1172 13.7396 29.1172 13.0625V4.01562C29.1172 3.89062 29.1432 3.79427 29.1953 3.72656C29.4141 3.4401 29.7344 3.13021 30.1562 2.79688C30.2292 2.74479 30.2943 2.71875 30.3516 2.71875C30.4193 2.71875 30.4844 2.74479 30.5469 2.79688C30.7708 2.96875 30.9583 3.13021 31.1094 3.28125C31.2656 3.43229 31.3984 3.58073 31.5078 3.72656C31.5599 3.79427 31.5859 3.89062 31.5859 4.01562V12.5859C31.5859 12.9297 31.6146 13.224 31.6719 13.4688C31.7292 13.7083 31.7969 13.901 31.875 14.0469C31.9635 14.2188 31.9297 14.3411 31.7734 14.4141L30.1406 15.1641ZM37.5625 15.1953C36.25 15.1953 35.2109 14.8464 34.4453 14.1484C33.6797 13.4505 33.2969 12.4115 33.2969 11.0312C33.2969 9.61458 33.6927 8.55729 34.4844 7.85938C35.2812 7.15625 36.3438 6.80469 37.6719 6.80469C38.9531 6.80469 39.9792 7.15104 40.75 7.84375C41.5208 8.53125 41.9062 9.54688 41.9062 10.8906C41.9062 12.2917 41.5208 13.3594 40.75 14.0938C39.9792 14.8281 38.9167 15.1953 37.5625 15.1953ZM37.6406 13.3047C38.2135 13.3047 38.6458 13.1276 38.9375 12.7734C39.2292 12.4141 39.375 11.8021 39.375 10.9375C39.375 10.1146 39.2266 9.53646 38.9297 9.20312C38.638 8.86458 38.2031 8.69531 37.625 8.69531C37.0677 8.69531 36.6276 8.8776 36.3047 9.24219C35.987 9.60156 35.8281 10.1875 35.8281 11C35.8281 11.849 35.9792 12.4453 36.2812 12.7891C36.5885 13.1328 37.0417 13.3047 37.6406 13.3047ZM45.8125 15.1953C45.2552 15.1953 44.7917 15.1484 44.4219 15.0547C44.0573 14.9609 43.763 14.849 43.5391 14.7188C43.3203 14.5833 43.1484 14.4609 43.0234 14.3516C42.9297 14.263 42.9193 14.1641 42.9922 14.0547L43.7891 12.875C43.9036 12.7083 44.0339 12.6979 44.1797 12.8438C44.3307 12.9896 44.5339 13.1328 44.7891 13.2734C45.0495 13.4089 45.3724 13.4766 45.7578 13.4766C46.1016 13.4766 46.3828 13.4193 46.6016 13.3047C46.8255 13.1849 46.9375 13.013 46.9375 12.7891C46.9375 12.6328 46.888 12.5052 46.7891 12.4062C46.6901 12.3073 46.5156 12.2057 46.2656 12.1016C46.0156 11.9974 45.6667 11.8646 45.2188 11.7031C44.5573 11.4635 44.0573 11.1745 43.7188 10.8359C43.3802 10.4974 43.2109 10.0026 43.2109 9.35156C43.2109 8.7526 43.375 8.26562 43.7031 7.89062C44.0365 7.51562 44.4609 7.24219 44.9766 7.07031C45.4974 6.89323 46.0391 6.80469 46.6016 6.80469C47.3151 6.80469 47.8151 6.8724 48.1016 7.00781C48.3932 7.13802 48.5807 7.23958 48.6641 7.3125C48.7422 7.38021 48.7969 7.45833 48.8281 7.54688C48.8958 7.75 48.9479 8.01823 48.9844 8.35156C49.0052 8.54427 48.9557 8.67188 48.8359 8.73438C48.7734 8.77083 48.6745 8.8099 48.5391 8.85156C48.4036 8.89323 48.2682 8.92969 48.1328 8.96094C47.9974 8.99219 47.8958 9.00781 47.8281 9.00781C47.8073 9.00781 47.7839 9.0026 47.7578 8.99219C47.737 8.97656 47.6979 8.94271 47.6406 8.89062C47.5729 8.82292 47.4557 8.74479 47.2891 8.65625C47.1276 8.56771 46.9036 8.52344 46.6172 8.52344C46.3359 8.52344 46.099 8.57031 45.9062 8.66406C45.7188 8.7526 45.625 8.91146 45.625 9.14062C45.625 9.39062 45.7448 9.57812 45.9844 9.70312C46.2292 9.82812 46.6302 9.98958 47.1875 10.1875C47.625 10.3385 48.0052 10.5052 48.3281 10.6875C48.6562 10.8646 48.9089 11.099 49.0859 11.3906C49.263 11.6771 49.3516 12.0651 49.3516 12.5547C49.3516 13.1901 49.1771 13.7031 48.8281 14.0938C48.4844 14.4792 48.0417 14.7604 47.5 14.9375C46.9635 15.1094 46.401 15.1953 45.8125 15.1953ZM54.8047 15.1953C53.9245 15.1953 53.1589 15.0547 52.5078 14.7734C51.8568 14.487 51.3516 14.0443 50.9922 13.4453C50.6328 12.8464 50.4531 12.0729 50.4531 11.125C50.4531 9.70312 50.8177 8.6276 51.5469 7.89844C52.276 7.16927 53.2448 6.80469 54.4531 6.80469C55.2396 6.80469 55.9036 6.94531 56.4453 7.22656C56.9922 7.50781 57.4062 7.89583 57.6875 8.39062C57.974 8.88542 58.1172 9.45052 58.1172 10.0859C58.1172 10.7057 57.9583 11.138 57.6406 11.3828C57.3229 11.6276 56.8594 11.75 56.25 11.75H52.8984C52.9401 12.2865 53.1354 12.6953 53.4844 12.9766C53.8385 13.2578 54.3177 13.3984 54.9219 13.3984C55.401 13.3984 55.7839 13.3281 56.0703 13.1875C56.362 13.0417 56.5651 12.9271 56.6797 12.8438C56.7786 12.7708 56.8906 12.737 57.0156 12.7422C57.1146 12.7422 57.2552 12.763 57.4375 12.8047C57.625 12.8411 57.8099 12.9115 57.9922 13.0156C58.1224 13.0833 58.1875 13.1771 58.1875 13.2969C58.1875 13.3646 58.1745 13.4609 58.1484 13.5859C58.1328 13.6589 58.1068 13.7656 58.0703 13.9062C58.0339 14.0417 57.987 14.1693 57.9297 14.2891C57.8984 14.3464 57.849 14.401 57.7812 14.4531C57.6771 14.526 57.5078 14.6224 57.2734 14.7422C57.0443 14.862 56.7292 14.9661 56.3281 15.0547C55.9271 15.1484 55.4193 15.1953 54.8047 15.1953ZM52.8828 10.1484H55.4297C55.6953 10.1484 55.8281 10.026 55.8281 9.78125C55.8281 9.41146 55.7109 9.10156 55.4766 8.85156C55.2474 8.59635 54.901 8.46875 54.4375 8.46875C53.9323 8.46875 53.5599 8.63021 53.3203 8.95312C53.0859 9.27604 52.9401 9.67448 52.8828 10.1484ZM62.9219 15.1953C61.1823 15.1953 60.3125 14.2917 60.3125 12.4844V8.82031H59.4297C59.2734 8.82031 59.1641 8.78906 59.1016 8.72656C59.0443 8.65885 59.0156 8.54688 59.0156 8.39062V7.42969C59.0156 7.27344 59.0443 7.16406 59.1016 7.10156C59.1641 7.03385 59.2734 7 59.4297 7H60.3125V5.74219C60.3125 5.61719 60.3385 5.52083 60.3906 5.45312C60.6094 5.16667 60.9297 4.85677 61.3516 4.52344C61.4245 4.47135 61.4896 4.44531 61.5469 4.44531C61.6094 4.44531 61.6719 4.47135 61.7344 4.52344C61.9583 4.69531 62.1458 4.85677 62.2969 5.00781C62.4531 5.15885 62.5859 5.30729 62.6953 5.45312C62.7474 5.52083 62.7734 5.61719 62.7734 5.74219V7H64.1562C64.3125 7 64.4193 7.03385 64.4766 7.10156C64.5391 7.16406 64.5703 7.27344 64.5703 7.42969V8.39062C64.5703 8.54688 64.5391 8.65885 64.4766 8.72656C64.4193 8.78906 64.3125 8.82031 64.1562 8.82031H62.7734V12.0547C62.7734 12.888 63.0755 13.3047 63.6797 13.3047C63.7734 13.3047 63.8594 13.2969 63.9375 13.2812C64.0156 13.2604 64.0833 13.2396 64.1406 13.2188C64.25 13.1771 64.3255 13.1615 64.3672 13.1719C64.4141 13.1823 64.4557 13.2396 64.4922 13.3438L64.9453 14.5547C64.9922 14.6849 64.9609 14.7786 64.8516 14.8359C64.7734 14.8724 64.5833 14.9401 64.2812 15.0391C63.9844 15.1432 63.5312 15.1953 62.9219 15.1953ZM68.4844 15.1953C67.9271 15.1953 67.4635 15.1484 67.0938 15.0547C66.7292 14.9609 66.4349 14.849 66.2109 14.7188C65.9922 14.5833 65.8203 14.4609 65.6953 14.3516C65.6016 14.263 65.5911 14.1641 65.6641 14.0547L66.4609 12.875C66.5755 12.7083 66.7057 12.6979 66.8516 12.8438C67.0026 12.9896 67.2057 13.1328 67.4609 13.2734C67.7214 13.4089 68.0443 13.4766 68.4297 13.4766C68.7734 13.4766 69.0547 13.4193 69.2734 13.3047C69.4974 13.1849 69.6094 13.013 69.6094 12.7891C69.6094 12.6328 69.5599 12.5052 69.4609 12.4062C69.362 12.3073 69.1875 12.2057 68.9375 12.1016C68.6875 11.9974 68.3385 11.8646 67.8906 11.7031C67.2292 11.4635 66.7292 11.1745 66.3906 10.8359C66.0521 10.4974 65.8828 10.0026 65.8828 9.35156C65.8828 8.7526 66.0469 8.26562 66.375 7.89062C66.7083 7.51562 67.1328 7.24219 67.6484 7.07031C68.1693 6.89323 68.7109 6.80469 69.2734 6.80469C69.987 6.80469 70.487 6.8724 70.7734 7.00781C71.0651 7.13802 71.2526 7.23958 71.3359 7.3125C71.4141 7.38021 71.4688 7.45833 71.5 7.54688C71.5677 7.75 71.6198 8.01823 71.6562 8.35156C71.6771 8.54427 71.6276 8.67188 71.5078 8.73438C71.4453 8.77083 71.3464 8.8099 71.2109 8.85156C71.0755 8.89323 70.9401 8.92969 70.8047 8.96094C70.6693 8.99219 70.5677 9.00781 70.5 9.00781C70.4792 9.00781 70.4557 9.0026 70.4297 8.99219C70.4089 8.97656 70.3698 8.94271 70.3125 8.89062C70.2448 8.82292 70.1276 8.74479 69.9609 8.65625C69.7995 8.56771 69.5755 8.52344 69.2891 8.52344C69.0078 8.52344 68.7708 8.57031 68.5781 8.66406C68.3906 8.7526 68.2969 8.91146 68.2969 9.14062C68.2969 9.39062 68.4167 9.57812 68.6562 9.70312C68.901 9.82812 69.3021 9.98958 69.8594 10.1875C70.2969 10.3385 70.6771 10.5052 71 10.6875C71.3281 10.8646 71.5807 11.099 71.7578 11.3906C71.9349 11.6771 72.0234 12.0651 72.0234 12.5547C72.0234 13.1901 71.849 13.7031 71.5 14.0938C71.1562 14.4792 70.7135 14.7604 70.1719 14.9375C69.6354 15.1094 69.0729 15.1953 68.4844 15.1953ZM76.4062 15.1953C74.6667 15.1953 73.7969 14.2917 73.7969 12.4844V8.82031H72.9141C72.7578 8.82031 72.6484 8.78906 72.5859 8.72656C72.5286 8.65885 72.5 8.54688 72.5 8.39062V7.42969C72.5 7.27344 72.5286 7.16406 72.5859 7.10156C72.6484 7.03385 72.7578 7 72.9141 7H73.7969V5.74219C73.7969 5.61719 73.8229 5.52083 73.875 5.45312C74.0938 5.16667 74.4141 4.85677 74.8359 4.52344C74.9089 4.47135 74.974 4.44531 75.0312 4.44531C75.0938 4.44531 75.1562 4.47135 75.2188 4.52344C75.4427 4.69531 75.6302 4.85677 75.7812 5.00781C75.9375 5.15885 76.0703 5.30729 76.1797 5.45312C76.2318 5.52083 76.2578 5.61719 76.2578 5.74219V7H77.6406C77.7969 7 77.9036 7.03385 77.9609 7.10156C78.0234 7.16406 78.0547 7.27344 78.0547 7.42969V8.39062C78.0547 8.54688 78.0234 8.65885 77.9609 8.72656C77.9036 8.78906 77.7969 8.82031 77.6406 8.82031H76.2578V12.0547C76.2578 12.888 76.5599 13.3047 77.1641 13.3047C77.2578 13.3047 77.3438 13.2969 77.4219 13.2812C77.5 13.2604 77.5677 13.2396 77.625 13.2188C77.7344 13.1771 77.8099 13.1615 77.8516 13.1719C77.8984 13.1823 77.9401 13.2396 77.9766 13.3438L78.4297 14.5547C78.4766 14.6849 78.4453 14.7786 78.3359 14.8359C78.2578 14.8724 78.0677 14.9401 77.7656 15.0391C77.4688 15.1432 77.0156 15.1953 76.4062 15.1953ZM83.4219 15.1953C82.1094 15.1953 81.0703 14.8464 80.3047 14.1484C79.5391 13.4505 79.1562 12.4115 79.1562 11.0312C79.1562 9.61458 79.5521 8.55729 80.3438 7.85938C81.1406 7.15625 82.2031 6.80469 83.5312 6.80469C84.8125 6.80469 85.8385 7.15104 86.6094 7.84375C87.3802 8.53125 87.7656 9.54688 87.7656 10.8906C87.7656 12.2917 87.3802 13.3594 86.6094 14.0938C85.8385 14.8281 84.776 15.1953 83.4219 15.1953ZM83.5 13.3047C84.0729 13.3047 84.5052 13.1276 84.7969 12.7734C85.0885 12.4141 85.2344 11.8021 85.2344 10.9375C85.2344 10.1146 85.0859 9.53646 84.7891 9.20312C84.4974 8.86458 84.0625 8.69531 83.4844 8.69531C82.9271 8.69531 82.487 8.8776 82.1641 9.24219C81.8464 9.60156 81.6875 10.1875 81.6875 11C81.6875 11.849 81.8385 12.4453 82.1406 12.7891C82.4479 13.1328 82.901 13.3047 83.5 13.3047ZM91.9141 8.48438H91.9453C92.3359 7.40104 93.0391 6.85938 94.0547 6.85938C94.1849 6.85938 94.2917 6.86719 94.375 6.88281C94.4583 6.89323 94.5156 6.90365 94.5469 6.91406C94.625 6.9401 94.6641 7 94.6641 7.09375V8.97656C94.6641 9.13802 94.5703 9.18229 94.3828 9.10938C94.3203 9.08333 94.2292 9.05729 94.1094 9.03125C93.9948 9 93.8333 8.98438 93.625 8.98438C93.0885 8.98438 92.6693 9.18229 92.3672 9.57812C92.0651 9.96875 91.9141 10.5026 91.9141 11.1797V14.5859C91.9141 14.7422 91.8802 14.8516 91.8125 14.9141C91.75 14.9714 91.6406 15 91.4844 15H89.875C89.7188 15 89.6068 14.9714 89.5391 14.9141C89.4766 14.8516 89.4453 14.7422 89.4453 14.5859V8.03906C89.4453 7.91406 89.4714 7.81771 89.5234 7.75C89.6328 7.60417 89.763 7.45573 89.9141 7.30469C90.0703 7.15365 90.2604 6.99219 90.4844 6.82031C90.526 6.78906 90.5677 6.76823 90.6094 6.75781C90.651 6.7474 90.6875 6.74219 90.7188 6.74219C90.7917 6.74219 90.8646 6.76823 90.9375 6.82031C91.3698 7.15885 91.6719 7.44792 91.8438 7.6875C91.8906 7.75 91.9141 7.82292 91.9141 7.90625V8.48438ZM99.7578 15.1953C98.8776 15.1953 98.112 15.0547 97.4609 14.7734C96.8099 14.487 96.3047 14.0443 95.9453 13.4453C95.5859 12.8464 95.4062 12.0729 95.4062 11.125C95.4062 9.70312 95.7708 8.6276 96.5 7.89844C97.2292 7.16927 98.1979 6.80469 99.4062 6.80469C100.193 6.80469 100.857 6.94531 101.398 7.22656C101.945 7.50781 102.359 7.89583 102.641 8.39062C102.927 8.88542 103.07 9.45052 103.07 10.0859C103.07 10.7057 102.911 11.138 102.594 11.3828C102.276 11.6276 101.812 11.75 101.203 11.75H97.8516C97.8932 12.2865 98.0885 12.6953 98.4375 12.9766C98.7917 13.2578 99.2708 13.3984 99.875 13.3984C100.354 13.3984 100.737 13.3281 101.023 13.1875C101.315 13.0417 101.518 12.9271 101.633 12.8438C101.732 12.7708 101.844 12.737 101.969 12.7422C102.068 12.7422 102.208 12.763 102.391 12.8047C102.578 12.8411 102.763 12.9115 102.945 13.0156C103.076 13.0833 103.141 13.1771 103.141 13.2969C103.141 13.3646 103.128 13.4609 103.102 13.5859C103.086 13.6589 103.06 13.7656 103.023 13.9062C102.987 14.0417 102.94 14.1693 102.883 14.2891C102.852 14.3464 102.802 14.401 102.734 14.4531C102.63 14.526 102.461 14.6224 102.227 14.7422C101.997 14.862 101.682 14.9661 101.281 15.0547C100.88 15.1484 100.372 15.1953 99.7578 15.1953ZM97.8359 10.1484H100.383C100.648 10.1484 100.781 10.026 100.781 9.78125C100.781 9.41146 100.664 9.10156 100.43 8.85156C100.201 8.59635 99.8542 8.46875 99.3906 8.46875C98.8854 8.46875 98.513 8.63021 98.2734 8.95312C98.0391 9.27604 97.8932 9.67448 97.8359 10.1484Z" fill="#16191C"/>
<path d="M102 5C102 5.53043 102.211 6.03914 102.586 6.41421C102.961 6.78929 103.47 7 104 7C104.53 7 105.039 6.78929 105.414 6.41421C105.789 6.03914 106 5.53043 106 5C106 4.46957 105.789 3.96086 105.414 3.58579C105.039 3.21071 104.53 3 104 3C103.47 3 102.961 3.21071 102.586 3.58579C102.211 3.96086 102 4.46957 102 5Z" stroke="black" stroke-width="0.355556" stroke-linecap="round" stroke-linejoin="round"/>
<path d="M103.5 4.99997V4.2222C103.5 4.19273 103.512 4.16446 103.533 4.14363C103.553 4.12279 103.582 4.11108 103.611 4.11108H104.278C104.366 4.11108 104.451 4.1462 104.513 4.20871C104.576 4.27123 104.611 4.35601 104.611 4.44442V4.66664C104.611 4.75505 104.576 4.83983 104.513 4.90234C104.451 4.96485 104.366 4.99997 104.278 4.99997H103.889M103.5 4.99997V5.88886M103.5 4.99997H103.889M103.889 4.99997L104.556 5.88886" stroke="black" stroke-width="0.355556" stroke-linecap="round" stroke-linejoin="round"/>
</svg>
